<?xml version="1.0" encoding="UTF-8"?>
<svg version="1.1" xmlns="http://www.w3.org/2000/svg" width="512" height="512">
<path d="M0 0 C1.01790619 0.00215515 2.03581238 0.0043103 3.08456421 0.00653076 C17.69363523 0.05620146 32.02575853 0.30709809 46.375 3.3125 C47.34985352 3.51117676 48.32470703 3.70985352 49.32910156 3.91455078 C98.33696698 14.16611774 142.34114199 36.50532652 178.375 71.3125 C178.99584473 71.91143066 179.61668945 72.51036133 180.25634766 73.12744141 C188.15750259 80.79126503 195.70266955 88.53248394 202.375 97.3125 C202.79168945 97.85277832 203.20837891 98.39305664 203.63769531 98.94970703 C211.3209873 108.9447116 218.06342968 119.40459036 224.375 130.3125 C224.76929199 130.98974121 225.16358398 131.66698242 225.56982422 132.36474609 C240.47785371 158.28373809 250.03651819 187.77601638 254.375 217.3125 C254.55232666 218.51712891 254.72965332 219.72175781 254.91235352 220.96289062 C256.51132494 232.6201731 256.73340972 244.18436066 256.6875 255.9375 C256.68476578 257.39183441 256.68476578 257.39183441 256.68197632 258.87554932 C256.63662737 273.20729259 256.21795422 287.22145512 253.375 301.3125 C253.19807617 302.21436035 253.02115234 303.1162207 252.83886719 304.04541016 C251.54002189 310.51832573 250.03323805 316.92270862 248.375 323.3125 C248.16004883 324.14313965 247.94509766 324.9737793 247.72363281 325.82958984 C240.20439037 354.18129247 227.27656688 380.43361961 210.375 404.3125 C209.88773437 405.00472656 209.40046875 405.69695312 208.8984375 406.41015625 C202.00930477 416.11757055 194.46182879 424.96108954 186.15722656 433.48339844 C184.38301167 435.30427762 182.62518486 437.14003929 180.8671875 438.9765625 C173.76832106 446.31361264 166.35682072 452.88286376 158.16796875 458.97705078 C156.33092428 460.34532873 154.50911069 461.73235529 152.6875 463.12109375 C144.26077324 469.48709778 135.56596417 475.11811381 126.375 480.3125 C125.74464844 480.67553223 125.11429687 481.03856445 124.46484375 481.41259766 C91.15204953 500.48333112 51.0670727 512.31371002 12.58203125 512.515625 C11.68149017 512.52263931 10.7809491 512.52965363 9.8531189 512.53688049 C6.96452774 512.55427902 4.07614163 512.5607324 1.1875 512.5625 C0.20012848 512.56317474 -0.78724304 512.56384949 -1.80453491 512.56454468 C-16.29588264 512.54879657 -30.36520251 512.09591075 -44.625 509.3125 C-45.52202637 509.15152832 -46.41905273 508.99055664 -47.34326172 508.82470703 C-107.16257019 498.00045879 -164.65664826 463.95858018 -201.625 415.3125 C-202.04168945 414.77222168 -202.45837891 414.23194336 -202.88769531 413.67529297 C-227.38584707 381.8062531 -243.87689938 345.25435217 -251.9375 305.875 C-252.08485596 305.15610596 -252.23221191 304.43721191 -252.3840332 303.6965332 C-255.35789088 288.05024391 -255.99800362 272.57681954 -255.9375 256.6875 C-255.93534485 255.66959381 -255.9331897 254.65168762 -255.93096924 253.60293579 C-255.88129854 238.99386477 -255.63040191 224.66174147 -252.625 210.3125 C-252.42632324 209.33764648 -252.22764648 208.36279297 -252.02294922 207.35839844 C-241.90232806 158.9765226 -219.9858123 114.98821731 -185.625 79.3125 C-184.99287598 78.65314453 -184.36075195 77.99378906 -183.70947266 77.31445312 C-174.56502521 67.82619695 -165.26765991 59.0862956 -154.625 51.3125 C-153.47394983 50.45443848 -152.32290823 49.59636549 -151.171875 48.73828125 C-142.98224019 42.70072604 -134.47961724 37.31792698 -125.625 32.3125 C-124.91778809 31.9103125 -124.21057617 31.508125 -123.48193359 31.09375 C-100.34654164 18.0683259 -75.17537591 9.31948539 -49.1875 4 C-48.46860596 3.85264404 -47.74971191 3.70528809 -47.0090332 3.5534668 C-31.36274391 0.57960912 -15.88931954 -0.06050362 0 0 Z " fill="#4D38F7" transform="translate(255.625,-0.3125)"/>
<path d="M0 0 C1.13859141 0.00056958 1.13859141 0.00056958 2.30018467 0.00115067 C3.17302461 -0.00084038 4.04586455 -0.00283143 4.94515419 -0.00488281 C5.91497842 -0.00196997 6.88480265 0.00094287 7.8840155 0.00394398 C8.90575802 0.00308955 9.92750053 0.00223513 10.98020494 0.00135481 C14.43200012 -0.00030306 17.88374757 0.00522639 21.33553833 0.01067311 C23.79870869 0.01095494 26.26187913 0.01079732 28.72504944 0.0102306 C34.04254095 0.01000228 39.36001737 0.01285369 44.67750496 0.01846844 C52.36578213 0.02658125 60.05405337 0.02919843 67.74233436 0.03045643 C80.21481195 0.0326473 92.68728303 0.03930832 105.15975708 0.04875904 C117.27857185 0.05793227 129.39738485 0.06501354 141.51620239 0.06926686 C142.26268856 0.06952958 143.00917473 0.0697923 143.7782817 0.07006299 C147.52302886 0.07136799 151.26777604 0.0726317 155.01252323 0.07387489 C186.09928496 0.08424858 217.18603859 0.10194195 248.27279419 0.1241985 C249.64203928 2.86268869 249.39559142 5.03073349 249.3930487 8.09725147 C249.39511495 10.00319804 249.39511495 10.00319804 249.39722294 11.94764858 C249.39367588 13.36929174 249.39003799 14.79093468 249.38631958 16.2125774 C249.38601338 17.7246795 249.38614649 19.23678175 249.38668483 20.74888378 C249.3869111 24.8075691 249.38110454 28.86622508 249.3740744 32.92490345 C249.36839021 36.72986149 249.36811186 40.53481231 249.36739868 44.33977467 C249.36214603 55.47625318 249.34818494 66.61272621 249.33529419 77.7491985 C249.31466919 102.6229485 249.29404419 127.4966985 249.27279419 153.1241985 C166.11279419 153.1241985 82.95279419 153.1241985 -2.72720581 153.1241985 C-2.74783081 128.0648235 -2.76845581 103.0054485 -2.78970581 77.1866985 C-2.79880982 69.26033375 -2.80791382 61.333969 -2.8172937 53.16741139 C-2.82181031 43.52349049 -2.82181031 43.52349049 -2.82264954 39.01554066 C-2.82358503 35.85224421 -2.82734767 32.68896436 -2.83278137 29.5256725 C-2.83960826 25.49836715 -2.84170298 21.47108619 -2.84027809 17.44377559 C-2.84057632 15.96096363 -2.84257819 14.47815088 -2.84642094 12.99534386 C-2.85134959 11.00188891 -2.84960958 9.00842071 -2.84746033 7.01496083 C-2.84838212 5.89498235 -2.84930392 4.77500387 -2.85025364 3.62108666 C-2.68130631 0.19280517 -2.68130631 0.19280517 0 0 Z " fill="#FDFCFE" transform="translate(132.72720581293106,156.8758015036583)"/>
<path d="M0 0 C1.0672934 -0.00260775 2.13458679 -0.00521549 3.23422241 -0.00790226 C4.42125763 -0.00567154 5.60829285 -0.00344082 6.83129883 -0.0011425 C8.08101471 -0.00270249 9.33073059 -0.00426248 10.61831665 -0.00586975 C14.10301728 -0.01006739 17.58769074 -0.00797043 21.07239151 -0.00488353 C24.8243046 -0.00263141 28.57621285 -0.0061081 32.328125 -0.00886345 C39.68439523 -0.01332216 47.04065529 -0.01234423 54.39692593 -0.00945081 C60.37277243 -0.00719717 66.34861608 -0.00688408 72.32446289 -0.00797462 C73.17329922 -0.00812786 74.02213554 -0.00828109 74.89669418 -0.00843897 C76.62080892 -0.00875868 78.34492366 -0.00908289 80.06903839 -0.00941156 C96.25577764 -0.01226665 112.44251125 -0.00897888 128.62924957 -0.00361119 C142.53384174 0.00085687 156.43842556 0.00008095 170.34301758 -0.00452995 C186.469789 -0.00987521 202.59655546 -0.01199195 218.72332764 -0.00891769 C220.44128418 -0.00859912 222.15924072 -0.00828475 223.87719727 -0.00797462 C224.72257931 -0.00782035 225.56796135 -0.00766607 226.43896103 -0.00750712 C232.41121286 -0.00664182 238.38346155 -0.00810513 244.35571289 -0.01045418 C251.62874528 -0.01325184 258.90176687 -0.01251465 266.17479801 -0.00717343 C269.88927365 -0.00453595 273.60373126 -0.00353214 277.31820679 -0.00682259 C281.33560751 -0.01032769 285.35296223 -0.00615733 289.37036133 -0.0011425 C291.15091415 -0.00448858 291.15091415 -0.00448858 292.96743774 -0.00790226 C294.56837784 -0.00399064 294.56837784 -0.00399064 296.20166016 0 C297.13029373 0.00016235 298.05892731 0.0003247 299.01570129 0.00049198 C301.10083008 0.12584114 301.10083008 0.12584114 302.10083008 1.12584114 C303.23212177 10.30599507 300.55540343 17.84177266 295.41333008 25.37584114 C290.33201411 31.7274861 281.99582028 37.40573611 273.79111922 38.40798485 C271.0638989 38.52044846 268.35058758 38.54008623 265.62104797 38.52697945 C264.57814439 38.53377612 263.5352408 38.54057279 262.46073407 38.54757541 C258.97258151 38.56653764 255.48478037 38.56411113 251.99658203 38.56163216 C249.49287973 38.57061036 246.98918158 38.58081874 244.48548889 38.59216499 C238.39366096 38.6159132 232.30197073 38.62532757 226.21010933 38.62700213 C221.25517963 38.62842991 216.30027854 38.63460563 211.34535789 38.644104 C197.28108109 38.67051374 183.21687284 38.68436397 169.15257106 38.68211258 C168.3950107 38.68199271 167.63745033 38.68187284 166.85693359 38.68174934 C166.09844245 38.6816267 165.3399513 38.68150406 164.55847558 38.6813777 C152.2740419 38.6801591 139.98988444 38.70885026 127.70553062 38.75116444 C115.07621283 38.79432168 102.44702955 38.81497131 89.81763619 38.81238312 C82.73356882 38.81138935 75.6497909 38.81953521 68.56579018 38.85191727 C61.89992444 38.88219378 55.23476948 38.88115978 48.56883812 38.85936737 C46.12761415 38.85623671 43.68635183 38.86327785 41.24519348 38.88144875 C25.65363645 38.98995256 15.42285238 38.4271819 3.10083008 28.12584114 C-3.58876538 19.92569187 -6.97734078 11.76241132 -5.89916992 1.12584114 C-4.24045641 -0.53287237 -2.2823816 0.00039903 0 0 Z " fill="#FEFDFE" transform="translate(107.899169921875,316.87415885925293)"/>
<path d="M0 0 C11.55 0 23.1 0 35 0 C35.020625 5.589375 35.04125 11.17875 35.0625 16.9375 C35.071604 18.70343506 35.08070801 20.46937012 35.09008789 22.28881836 C35.09300714 23.68082605 35.09555567 25.07283459 35.09765625 26.46484375 C35.10277222 27.19384888 35.10788818 27.922854 35.11315918 28.6739502 C35.11347011 30.44970076 35.06228515 32.22534208 35 34 C33.29507119 35.70492881 31.15465739 35.1280442 28.88098145 35.13894653 C28.16744507 35.1369223 27.45390869 35.13489807 26.71875 35.1328125 C25.99006714 35.13376923 25.26138428 35.13472595 24.51062012 35.13571167 C22.9672029 35.13639335 21.42378283 35.13453988 19.88037109 35.13037109 C17.510026 35.12502262 15.13987041 35.13031642 12.76953125 35.13671875 C11.27343708 35.13605797 9.77734303 35.1347768 8.28125 35.1328125 C7.21094543 35.13584885 7.21094543 35.13584885 6.11901855 35.13894653 C1.11495191 35.11495191 1.11495191 35.11495191 0 34 C-0.08846834 31.47931819 -0.11534524 28.98545583 -0.09765625 26.46484375 C-0.09664917 25.79747192 -0.09564209 25.1301001 -0.09460449 24.44250488 C-0.08935808 21.9408192 -0.07539691 19.43915794 -0.0625 16.9375 C-0.041875 11.348125 -0.02125 5.75875 0 0 Z " fill="#FAF9FE" transform="translate(172,191)"/>
<path d="M0 0 C0.77916779 -0.00902847 1.55833557 -0.01805695 2.3611145 -0.02735901 C4.00681732 -0.04184123 5.65257746 -0.05074321 7.29833984 -0.05444336 C9.80535741 -0.06633531 12.30990816 -0.11553104 14.81640625 -0.16601562 C16.41925888 -0.17548141 18.02212656 -0.1827157 19.625 -0.1875 C20.74091019 -0.21679848 20.74091019 -0.21679848 21.87936401 -0.24668884 C25.8361061 -0.21269312 28.36589863 0.32305454 31.40283203 2.78100586 C35.38094479 6.83360796 35.11812351 9.83428439 35.1484375 15.265625 C35.15413757 16.04999435 35.15983765 16.83436371 35.16571045 17.64250183 C35.1751639 19.30437876 35.1816958 20.96627447 35.18554688 22.62817383 C35.19523479 25.16325913 35.22624654 27.69752754 35.2578125 30.23242188 C35.26434447 31.84765144 35.26959418 33.4628868 35.2734375 35.078125 C35.2857843 35.83350052 35.2981311 36.58887604 35.31085205 37.36714172 C35.29188684 41.87866544 34.83854696 44.84685319 31.9453125 48.37109375 C28.36070158 51.14152113 23.97765874 50.71207213 19.63671875 50.7421875 C18.83298325 50.75121597 18.02924774 50.76024445 17.20115662 50.76954651 C15.504178 50.78402913 13.8071438 50.79293081 12.11010742 50.79663086 C9.51971184 50.80853905 6.93169082 50.85774905 4.34179688 50.90820312 C2.69011575 50.91766683 1.03842005 50.92490212 -0.61328125 50.9296875 C-1.38425644 50.94921982 -2.15523163 50.96875214 -2.9495697 50.98887634 C-7.0220624 50.95485269 -8.81804251 50.56342991 -12.01977539 47.96118164 C-15.31621128 43.7653942 -15.22895086 40.64768662 -15.2578125 35.4765625 C-15.26636261 34.30000847 -15.26636261 34.30000847 -15.27508545 33.09968567 C-15.2845389 31.43780874 -15.2910708 29.77591303 -15.29492188 28.11401367 C-15.30460979 25.57892837 -15.33562154 23.04465996 -15.3671875 20.50976562 C-15.37371947 18.89453606 -15.37896918 17.2793007 -15.3828125 15.6640625 C-15.3951593 14.90868698 -15.4075061 14.15331146 -15.42022705 13.37504578 C-15.40126184 8.86352206 -14.94792196 5.89533431 -12.0546875 2.37109375 C-8.51321677 -0.34020038 -4.27956195 0.0306823 0 0 Z M-8.0546875 8.37109375 C-8.0753125 13.96046875 -8.0959375 19.54984375 -8.1171875 25.30859375 C-8.1262915 27.07452881 -8.13539551 28.84046387 -8.14477539 30.65991211 C-8.14769464 32.0519198 -8.15024317 33.44392834 -8.15234375 34.8359375 C-8.15745972 35.56494263 -8.16257568 36.29394775 -8.16784668 37.04504395 C-8.16815761 38.82079451 -8.11697265 40.59643583 -8.0546875 42.37109375 C-6.34975869 44.07602256 -4.20934489 43.49913795 -1.93566895 43.51004028 C-0.86536438 43.50700394 -0.86536438 43.50700394 0.2265625 43.50390625 C0.95524536 43.50486298 1.68392822 43.5058197 2.43469238 43.50680542 C3.9781096 43.5074871 5.52152967 43.50563363 7.06494141 43.50146484 C9.4352865 43.49611637 11.80544209 43.50141017 14.17578125 43.5078125 C15.67187542 43.50715172 17.16796947 43.50587055 18.6640625 43.50390625 C19.37759888 43.50593048 20.09113525 43.50795471 20.82629395 43.51004028 C24.17017679 43.78758026 24.17017679 43.78758026 26.9453125 42.37109375 C27.03378084 39.85041194 27.06065774 37.35654958 27.04296875 34.8359375 C27.04196167 34.16856567 27.04095459 33.50119385 27.03991699 32.81359863 C27.03467058 30.31191295 27.02070941 27.81025169 27.0078125 25.30859375 C26.9871875 19.71921875 26.9665625 14.12984375 26.9453125 8.37109375 C15.3953125 8.37109375 3.8453125 8.37109375 -8.0546875 8.37109375 Z " fill="#5844F7" transform="translate(180.0546875,182.62890625)"/>
<path d="M0 0 C0.66168434 -0.00155999 1.32336868 -0.00311998 2.00510406 -0.00472724 C4.23845092 -0.00873907 6.47173067 -0.00554691 8.70507812 -0.00241089 C10.29964233 -0.00376485 11.89420623 -0.00554475 13.48876953 -0.00772095 C17.83162191 -0.0122959 22.17445065 -0.01050547 26.51730347 -0.00734186 C31.0519009 -0.00481858 35.58649624 -0.00715571 40.12109375 -0.00872803 C47.73763392 -0.01054982 55.35416442 -0.00814317 62.97070312 -0.00338745 C71.78949001 0.00205519 80.60825378 0.00029254 89.4270401 -0.00521386 C96.9845525 -0.00974472 104.54205791 -0.01039567 112.09957123 -0.00777519 C116.61952595 -0.00621227 121.13946979 -0.00601906 125.65942383 -0.00931168 C129.90778694 -0.01219 134.15612012 -0.01021541 138.40447998 -0.00441742 C139.96824087 -0.00308961 141.53200425 -0.00348428 143.09576416 -0.00568008 C145.22142945 -0.0083908 147.34699726 -0.00501147 149.47265625 0 C150.66507935 0.00037703 151.85750244 0.00075405 153.08605957 0.0011425 C155.73632812 0.12698364 155.73632812 0.12698364 156.73632812 1.12698364 C156.86132812 3.62698364 156.86132812 3.62698364 156.73632812 6.12698364 C154.89864964 7.96466212 151.94190621 7.25723178 149.47938538 7.26069641 C148.8184066 7.26296197 148.15742782 7.26522752 147.47641939 7.26756173 C145.24541128 7.27392877 143.0144635 7.27307065 140.78344727 7.27224731 C139.19050517 7.27523712 137.59756381 7.27863923 136.00462341 7.28242493 C131.66583988 7.29128724 127.32707605 7.29360397 122.98828435 7.29424071 C119.37226795 7.29518795 115.75625619 7.29886409 112.14024156 7.30241281 C103.61245359 7.31056583 95.08467618 7.31299627 86.55688477 7.31228638 C77.74605264 7.31168534 68.93528169 7.32224044 60.12446505 7.33803004 C52.57203159 7.35108461 45.01961818 7.35647115 37.46717352 7.35583097 C32.95108133 7.35557537 28.43504348 7.35846054 23.91896248 7.36900902 C19.6730353 7.37865507 15.42721478 7.37879336 11.18128395 7.37149239 C9.61955358 7.37044218 8.05781669 7.37283509 6.49609756 7.37885284 C4.37068909 7.38651458 2.24565433 7.38196716 0.12025452 7.3742218 C-1.66699744 7.37503895 -1.66699744 7.37503895 -3.49035549 7.37587261 C-6.26367188 7.12698364 -6.26367188 7.12698364 -8.26367188 5.12698364 C-7.40238807 -0.55748946 -5.38432683 0.00170244 0 0 Z " fill="#4D38F7" transform="translate(179.263671875,282.8730163574219)"/>
<path d="M0 0 C0.66168434 -0.00155999 1.32336868 -0.00311998 2.00510406 -0.00472724 C4.23845092 -0.00873907 6.47173067 -0.00554691 8.70507812 -0.00241089 C10.29964233 -0.00376485 11.89420623 -0.00554475 13.48876953 -0.00772095 C17.83162191 -0.0122959 22.17445065 -0.01050547 26.51730347 -0.00734186 C31.0519009 -0.00481858 35.58649624 -0.00715571 40.12109375 -0.00872803 C47.73763392 -0.01054982 55.35416442 -0.00814317 62.97070312 -0.00338745 C71.78949001 0.00205519 80.60825378 0.00029254 89.4270401 -0.00521386 C96.9845525 -0.00974472 104.54205791 -0.01039567 112.09957123 -0.00777519 C116.61952595 -0.00621227 121.13946979 -0.00601906 125.65942383 -0.00931168 C129.90778694 -0.01219 134.15612012 -0.01021541 138.40447998 -0.00441742 C139.96824087 -0.00308961 141.53200425 -0.00348428 143.09576416 -0.00568008 C145.22142945 -0.0083908 147.34699726 -0.00501147 149.47265625 0 C150.66507935 0.00037703 151.85750244 0.00075405 153.08605957 0.0011425 C155.73632812 0.12698364 155.73632812 0.12698364 156.73632812 1.12698364 C156.86132812 3.62698364 156.86132812 3.62698364 156.73632812 6.12698364 C154.89864964 7.96466212 151.94190621 7.25723178 149.47938538 7.26069641 C148.8184066 7.26296197 148.15742782 7.26522752 147.47641939 7.26756173 C145.24541128 7.27392877 143.0144635 7.27307065 140.78344727 7.27224731 C139.19050517 7.27523712 137.59756381 7.27863923 136.00462341 7.28242493 C131.66583988 7.29128724 127.32707605 7.29360397 122.98828435 7.29424071 C119.37226795 7.29518795 115.75625619 7.29886409 112.14024156 7.30241281 C103.61245359 7.31056583 95.08467618 7.31299627 86.55688477 7.31228638 C77.74605264 7.31168534 68.93528169 7.32224044 60.12446505 7.33803004 C52.57203159 7.35108461 45.01961818 7.35647115 37.46717352 7.35583097 C32.95108133 7.35557537 28.43504348 7.35846054 23.91896248 7.36900902 C19.6730353 7.37865507 15.42721478 7.37879336 11.18128395 7.37149239 C9.61955358 7.37044218 8.05781669 7.37283509 6.49609756 7.37885284 C4.37068909 7.38651458 2.24565433 7.38196716 0.12025452 7.3742218 C-1.66699744 7.37503895 -1.66699744 7.37503895 -3.49035549 7.37587261 C-6.26367188 7.12698364 -6.26367188 7.12698364 -8.26367188 5.12698364 C-7.40238807 -0.55748946 -5.38432683 0.00170244 0 0 Z " fill="#4D38F7" transform="translate(179.263671875,257.8730163574219)"/>
<path d="M0 0 C1.42392563 -0.00639748 1.42392563 -0.00639748 2.87661743 -0.01292419 C3.92651352 -0.01247101 4.97640961 -0.01201782 6.05812073 -0.0115509 C7.15720764 -0.01490952 8.25629456 -0.01826813 9.38868713 -0.02172852 C13.04226291 -0.03127124 16.69579302 -0.03318327 20.34938049 -0.03425598 C22.87664815 -0.03746618 25.40391561 -0.04083006 27.93118286 -0.04434204 C33.23668423 -0.05034159 38.54216841 -0.05222375 43.84767151 -0.05158997 C49.98646763 -0.05098902 56.12517592 -0.06154243 62.26394981 -0.07733363 C68.16127041 -0.09196522 74.05856407 -0.09557858 79.95590401 -0.09498024 C82.46902386 -0.09616445 84.98214428 -0.10061066 87.49525261 -0.10831261 C91.00326298 -0.11805683 94.51104456 -0.11525656 98.01905823 -0.10920715 C99.06693008 -0.11482666 100.11480194 -0.12044617 101.19442749 -0.12623596 C102.62258286 -0.11994423 102.62258286 -0.11994423 104.07958984 -0.11352539 C104.9097483 -0.11407016 105.73990675 -0.11461493 106.59522152 -0.1151762 C108.60328674 0.13371277 108.60328674 0.13371277 110.60328674 2.13371277 C110.06757246 5.66942705 110.06757246 5.66942705 108.60328674 7.13371277 C107.13812371 7.23152502 105.66826852 7.26003025 104.19984436 7.26069641 C102.77375099 7.26492615 102.77375099 7.26492615 101.31884766 7.26924133 C99.74164696 7.26620499 99.74164696 7.26620499 98.13258362 7.2631073 C96.48154381 7.26573578 96.48154381 7.26573578 94.79714966 7.26841736 C91.13876291 7.27283845 87.48042403 7.26989698 83.82203674 7.26652527 C81.29237356 7.26719823 78.76271044 7.2681682 76.23304749 7.26942444 C70.92334825 7.27090176 65.61366637 7.26884035 60.30397034 7.26408386 C54.15722716 7.25864128 48.01051715 7.26040395 41.86377478 7.26591027 C35.96111111 7.27098717 30.05845778 7.27045983 24.15579224 7.26752853 C21.63905838 7.26685901 19.12232369 7.26768857 16.60559082 7.27000809 C13.09503399 7.2725331 9.58454185 7.26869615 6.07398987 7.2631073 C5.02252274 7.26513153 3.9710556 7.26715576 2.88772583 7.26924133 C1.46163246 7.2650116 1.46163246 7.2650116 0.00672913 7.26069641 C-0.82435112 7.26031939 -1.65543137 7.25994236 -2.51169586 7.25955391 C-4.39671326 7.13371277 -4.39671326 7.13371277 -5.39671326 6.13371277 C-5.52171326 3.63371277 -5.52171326 3.63371277 -5.39671326 1.13371277 C-3.81193192 -0.45106856 -2.19897348 0.00444109 0 0 Z " fill="#523EF7" transform="translate(236.39671325683594,213.8662872314453)"/>
<path d="M0 0 C1.26626976 0.00067978 1.26626976 0.00067978 2.55812073 0.00137329 C3.44262909 -0.00198532 4.32713745 -0.00534393 5.2384491 -0.00880432 C8.17778406 -0.01834447 11.11706224 -0.02025895 14.05641174 -0.02133179 C16.090434 -0.02454221 18.12445602 -0.02790611 20.15847778 -0.03141785 C24.42825354 -0.03741677 28.69800902 -0.03925696 32.9677887 -0.03866577 C38.45044162 -0.0385641 43.93296519 -0.05221831 49.41558743 -0.06943798 C53.61821087 -0.08053331 57.82080281 -0.08258574 62.02343941 -0.08205605 C64.04532886 -0.08323982 66.06721904 -0.08768366 68.08909416 -0.09538841 C70.9121963 -0.10513882 73.73501444 -0.10232997 76.55812073 -0.09628296 C77.40027634 -0.10190247 78.24243195 -0.10752197 79.11010742 -0.11331177 C84.89450267 -0.08167836 84.89450267 -0.08167836 87.12281799 2.14663696 C86.58710371 5.68235125 86.58710371 5.68235125 85.12281799 7.14663696 C82.30315857 7.25249786 79.50786279 7.2934147 76.68751526 7.29190063 C75.8030069 7.29525925 74.91849854 7.29861786 74.00718689 7.30207825 C71.06785193 7.31161839 68.12857374 7.31353288 65.18922424 7.31460571 C63.15520198 7.31781613 61.12117996 7.32118003 59.0871582 7.32469177 C54.81738245 7.3306907 50.54762696 7.33253089 46.27784729 7.3319397 C40.79519437 7.33183802 35.3126708 7.34549223 29.83004856 7.36271191 C25.62742511 7.37380724 21.42483318 7.37585967 17.22219658 7.37532997 C15.20030712 7.37651375 13.17841695 7.38095759 11.15654182 7.38866234 C8.33343969 7.39841274 5.51062155 7.3956039 2.68751526 7.38955688 C1.84535965 7.39517639 1.00320404 7.4007959 0.13552856 7.40658569 C-5.64886669 7.37495228 -5.64886669 7.37495228 -7.87718201 5.14663696 C-7.04587874 -0.33996459 -5.2638997 0.02937878 0 0 Z " fill="#513CF7" transform="translate(248.87718200683594,194.85336303710938)"/>
<path d="M0 0 C28.38 0 56.76 0 86 0 C86.495 2.475 86.495 2.475 87 5 C84.47191037 7.52808963 82.89130085 7.24353379 79.44262695 7.27105713 C78.66749756 7.26700867 77.89236816 7.26296021 77.09375 7.25878906 C75.86918091 7.26404602 75.86918091 7.26404602 74.61987305 7.26940918 C71.91316297 7.27823348 69.20671288 7.27237493 66.5 7.265625 C64.62434845 7.26697145 62.74869723 7.26891181 60.87304688 7.27142334 C56.93876834 7.27437555 53.00458051 7.27007386 49.0703125 7.26074219 C44.01925436 7.2493476 38.96840874 7.25590656 33.9173584 7.26788712 C30.04327789 7.27510311 26.16924803 7.27281899 22.29516602 7.26763153 C20.43237279 7.26629431 18.56957502 7.26794527 16.70678711 7.27259064 C14.10648358 7.27765161 11.50652755 7.26995181 8.90625 7.25878906 C8.13112061 7.26283752 7.35599121 7.26688599 6.55737305 7.27105713 C1.22852844 7.22852844 1.22852844 7.22852844 -1 5 C-0.67 3.35 -0.34 1.7 0 0 Z " fill="#523EF7" transform="translate(213,333)"/>
</svg>
